<svg data-v-423bf9ae="" xmlns="http://www.w3.org/2000/svg" viewBox="0 0 421 90" class="iconLeft"><!----><!----><!----><g data-v-423bf9ae="" id="4c78320d-3622-4dd0-93d0-3a5d7703b989" fill="#000000" transform="matrix(5.405405219639779,0,0,5.405405219639779,102.21861598237396,17.27026938839147)"><path d="M9.16 5.10L9.21 2.84L6.87 10.50L5.00 10.50L2.67 2.84L2.73 5.10L2.73 10.50L0.85 10.50L0.85-0.42L3.61-0.42L5.94 7.25L8.27-0.42L11.03-0.42L11.03 10.50L9.16 10.50L9.16 5.10ZM18.27 9.68L18.27 9.68L18.27 9.68Q17.43 10.68 15.75 10.68L15.75 10.68L15.75 10.68Q14.07 10.68 13.23 9.68L13.23 9.68L13.23 9.68Q12.39 8.68 12.39 7.01L12.39 7.01L12.39 6.57L12.39 6.57Q12.39 4.89 13.23 3.89L13.23 3.89L13.23 3.89Q14.07 2.90 15.75 2.90L15.75 2.90L15.75 2.90Q17.43 2.90 18.27 3.89L18.27 3.89L18.27 3.89Q19.11 4.89 19.11 6.57L19.11 6.57L19.11 7.01L19.11 7.01Q19.11 8.68 18.27 9.68ZM14.21 7.01L14.21 7.01Q14.21 9.09 15.75 9.09L15.75 9.09L15.75 9.09Q17.29 9.09 17.29 7.01L17.29 7.01L17.29 6.57L17.29 6.57Q17.29 4.48 15.75 4.48L15.75 4.48L15.75 4.48Q14.21 4.48 14.21 6.57L14.21 6.57L14.21 7.01ZM26.78 5.42L26.78 10.50L24.98 10.50L24.98 5.71L24.98 5.71Q24.98 5.15 24.68 4.82L24.68 4.82L24.68 4.82Q24.39 4.48 23.80 4.48L23.80 4.48L23.80 4.48Q22.78 4.48 22.26 5.33L22.26 5.33L22.26 10.50L20.44 10.50L20.44 5.18L20.31 3.08L21.92 3.08L22.09 4.06L22.09 4.06Q22.89 2.90 24.50 2.90L24.50 2.90L24.50 2.90Q25.65 2.90 26.21 3.61L26.21 3.61L26.21 3.61Q26.78 4.33 26.78 5.42L26.78 5.42ZM30.17 10.50L28.35 10.50L28.35 3.08L30.17 3.08L30.17 10.50ZM28.27-0.18L30.25-0.18L30.25 1.79L28.27 1.79L28.27-0.18ZM38.36 1.22L35.76 1.22L35.76 10.50L33.88 10.50L33.88 1.22L31.28 1.22L31.28-0.42L38.36-0.42L38.36 1.22ZM45.01 9.68L45.01 9.68L45.01 9.68Q44.17 10.68 42.49 10.68L42.49 10.68L42.49 10.68Q40.81 10.68 39.97 9.68L39.97 9.68L39.97 9.68Q39.13 8.68 39.13 7.01L39.13 7.01L39.13 6.57L39.13 6.57Q39.13 4.89 39.97 3.89L39.97 3.89L39.97 3.89Q40.81 2.90 42.49 2.90L42.49 2.90L42.49 2.90Q44.17 2.90 45.01 3.89L45.01 3.89L45.01 3.89Q45.85 4.89 45.85 6.57L45.85 6.57L45.85 7.01L45.85 7.01Q45.85 8.68 45.01 9.68ZM40.95 7.01L40.95 7.01Q40.95 9.09 42.49 9.09L42.49 9.09L42.49 9.09Q44.03 9.09 44.03 7.01L44.03 7.01L44.03 6.57L44.03 6.57Q44.03 4.48 42.49 4.48L42.49 4.48L42.49 4.48Q40.95 4.48 40.95 6.57L40.95 6.57L40.95 7.01ZM47.10 8.15L47.10 3.08L48.90 3.08L48.90 7.87L48.90 7.87Q48.90 9.09 50.09 9.09L50.09 9.09L50.09 9.09Q51.10 9.09 51.63 8.25L51.63 8.25L51.63 3.08L53.45 3.08L53.45 8.40L53.56 10.50L51.95 10.50L51.79 9.52L51.79 9.52Q50.99 10.68 49.38 10.68L49.38 10.68L49.38 10.68Q48.23 10.68 47.66 9.97L47.66 9.97L47.66 9.97Q47.10 9.25 47.10 8.15L47.10 8.15ZM58.70 2.90L58.70 2.90L58.70 2.90Q58.74 2.90 58.82 2.91L58.82 2.91L58.82 2.91Q58.90 2.91 58.91 2.91L58.91 2.91L58.91 4.68L58.60 4.68L58.60 4.68Q57.40 4.68 56.88 5.46L56.88 5.46L56.88 10.50L55.06 10.50L55.06 5.18L54.94 3.08L56.55 3.08L56.70 3.98L56.70 3.98Q57.44 2.90 58.70 2.90Z"></path></g><defs data-v-423bf9ae=""><linearGradient data-v-423bf9ae="" gradientTransform="rotate(25)" id="b66cb15c-9fbe-4fac-b645-2ccd04500ac1" x1="0%" y1="0%" x2="100%" y2="0%"><stop data-v-423bf9ae="" offset="0%" style="stop-color: rgb(0, 102, 120); stop-opacity: 1;"></stop><stop data-v-423bf9ae="" offset="100%" style="stop-color: rgb(79, 168, 255); stop-opacity: 1;"></stop></linearGradient></defs><g data-v-423bf9ae="" id="0b0fee19-85f3-497d-b7b5-4beccbe09367" transform="matrix(1.015549167547861,0,0,1.015549167547861,-6.519474423708957,-5.088459216196497)" stroke="none" fill="url(#b66cb15c-9fbe-4fac-b645-2ccd04500ac1)"><path d="M30.487 51.552c-1.02 0-1.984.229-2.854.634.463.43.756 1.036.756 1.716a2.352 2.352 0 0 1-2.351 2.352c-.68 0-1.286-.292-1.718-.754a6.797 6.797 0 0 0-.632 2.853c0 3.756 3.044 6.799 6.799 6.799s6.8-3.043 6.8-6.799a6.8 6.8 0 0 0-6.8-6.801z"></path><path d="M81.67 38.557a41.693 41.693 0 0 0 8.67-16.953c-8.578 9.088-23.557 15.115-40.615 15.115-17.059 0-32.039-6.027-40.617-15.115a41.711 41.711 0 0 0 8.868 17.18c-6.443 4.13-10.717 11.347-10.717 19.568 0 12.829 10.4 23.229 23.229 23.229 8.184 0 15.376-4.236 19.513-10.63 4.138 6.394 11.328 10.63 19.514 10.63 12.829 0 23.228-10.399 23.228-23.229-.002-8.372-4.431-15.706-11.073-19.795zM30.487 74.001c-8.643 0-15.649-7.006-15.649-15.649 0-8.643 7.006-15.651 15.649-15.651s15.651 7.009 15.651 15.651c.001 8.643-7.008 15.649-15.651 15.649zm39.027 0c-8.645 0-15.65-7.006-15.65-15.649 0-8.643 7.006-15.651 15.65-15.651 8.643 0 15.649 7.009 15.649 15.651 0 8.643-7.007 15.649-15.649 15.649z"></path><path d="M73.961 56.253a2.352 2.352 0 0 1-2.351-2.352c0-.68.293-1.286.754-1.716a6.732 6.732 0 0 0-2.851-.634 6.8 6.8 0 1 0 0 13.599 6.799 6.799 0 0 0 6.799-6.799 6.742 6.742 0 0 0-.635-2.853 2.328 2.328 0 0 1-1.716.755zM50 94.311l-6.907-11.725L50 75.164l6.907 7.422zM48.004 28.341l-15.899-6.125v9.812c5.498 1.509 11.461 2.315 17.62 2.315 4.895 0 9.666-.511 14.177-1.476v-10.65l-15.898 6.124z"></path><path d="M48.004 26.198L19.375 15.169l28.629-9.48 28.631 9.48z"></path></g><!----></svg>